<svg xmlns="http://www.w3.org/2000/svg" width="400" height="400" id="reading-book">
    <path fill="#2A94F4"
          d="M363.319 127.21H36.681c-9.649 0-17.499 7.849-17.499 17.497v192.484c0 9.648 7.85 17.499 17.499 17.499h326.638c9.648 0 17.498-7.85 17.498-17.499V144.708c0-9.649-7.849-17.498-17.498-17.498z"></path>
    <path fill="#FFBE55"
          d="M357.646 308.028v17.497a5.832 5.832 0 0 1-5.832 5.833H48.506a5.834 5.834 0 0 1-5.833-5.833v-17.497l34.837-17.499 139.988 5.832 116.655-5.832 23.493 17.499z"></path>
    <path fill="#FCD2B1"
          d="M50.857 316.081a184.942 184.942 0 0 1 149.303 3.612V109.711a184.942 184.942 0 0 0-154.022-1.587c-2.112.941-3.464 3.079-3.464 5.39v197.234c-.001 4.214 4.289 6.94 8.183 5.333zm149.303 3.611a184.943 184.943 0 0 1 149.302-3.612c3.895 1.608 8.184-1.119 8.184-5.332V113.515c0-2.312-1.353-4.449-3.463-5.39a184.942 184.942 0 0 0-154.022 1.587v209.98z"></path>
    <path fill="#868491"
          d="M223.49 281.6a5.834 5.834 0 0 1-1.748-11.4 190.968 190.968 0 0 1 18.051-4.71 5.829 5.829 0 0 1 6.903 4.512 5.827 5.827 0 0 1-4.511 6.903 179.636 179.636 0 0 0-16.946 4.426 5.892 5.892 0 0 1-1.749.269z"></path>
    <path fill="#0E538C"
          d="M334.314 281.6a5.825 5.825 0 0 1-1.748-.271c-22.01-6.912-44.823-9.501-67.785-7.672-3.258.233-6.021-2.145-6.276-5.354a5.838 5.838 0 0 1 5.354-6.277c24.504-1.925 48.771.814 72.204 8.174a5.837 5.837 0 0 1 3.816 7.313 5.832 5.832 0 0 1-5.565 4.087zm0-23.399a5.825 5.825 0 0 1-1.748-.271c-35.111-11.028-72.215-11.028-107.326 0-3.086.965-6.357-.747-7.314-3.816a5.838 5.838 0 0 1 3.816-7.313c37.401-11.746 76.921-11.746 114.321 0a5.836 5.836 0 0 1 3.816 7.313 5.832 5.832 0 0 1-5.565 4.087z"></path>
    <path fill="#868491"
          d="M223.49 234.938a5.835 5.835 0 0 1-1.748-11.401 190.543 190.543 0 0 1 66.188-8.553 5.834 5.834 0 0 1 5.547 6.104c-.147 3.223-2.836 5.684-6.106 5.55a178.72 178.72 0 0 0-62.133 8.029 5.82 5.82 0 0 1-1.748.271z"></path>
    <path fill="#0E538C"
          d="M334.314 234.938a5.825 5.825 0 0 1-1.748-.271 179.696 179.696 0 0 0-22.603-5.517 5.829 5.829 0 0 1-4.728-6.758 5.833 5.833 0 0 1 6.756-4.73 191.95 191.95 0 0 1 24.072 5.875 5.838 5.838 0 0 1 3.816 7.314 5.832 5.832 0 0 1-5.565 4.087zm0-23.4a5.855 5.855 0 0 1-1.748-.27c-35.111-11.028-72.215-11.028-107.326 0-3.086.958-6.357-.749-7.314-3.816a5.839 5.839 0 0 1 3.816-7.314c37.401-11.745 76.921-11.745 114.321 0a5.837 5.837 0 0 1 3.816 7.314 5.832 5.832 0 0 1-5.565 4.086z"></path>
    <path fill="#868491"
          d="M223.49 188.207a5.833 5.833 0 0 1-5.564-4.087 5.836 5.836 0 0 1 3.816-7.313 190.951 190.951 0 0 1 36.107-7.599c3.248-.39 6.089 1.958 6.442 5.152a5.833 5.833 0 0 1-5.155 6.439 179.515 179.515 0 0 0-33.897 7.138 5.893 5.893 0 0 1-1.749.27z"></path>
    <path fill="#0E538C"
          d="M334.314 188.207a5.855 5.855 0 0 1-1.748-.27 178.74 178.74 0 0 0-50.833-8.208 5.832 5.832 0 0 1-5.741-5.924c.05-3.218 2.865-5.93 5.923-5.741a190.568 190.568 0 0 1 54.147 8.743 5.838 5.838 0 0 1 3.816 7.314 5.836 5.836 0 0 1-5.564 4.086z"></path>
    <path fill="#868491"
          d="M223.49 164.944a5.833 5.833 0 0 1-5.564-4.086 5.838 5.838 0 0 1 3.816-7.314c25.415-7.983 51.72-10.547 78.219-7.598a5.83 5.83 0 0 1 5.154 6.439c-.353 3.199-3.178 5.568-6.442 5.152-24.858-2.756-49.574-.362-73.435 7.137-.58.181-1.172.27-1.748.27z"></path>
    <path fill="#0E538C"
          d="M334.314 164.944a5.856 5.856 0 0 1-1.748-.271 177.71 177.71 0 0 0-11.301-3.146 5.835 5.835 0 0 1-4.284-7.049 5.829 5.829 0 0 1 7.052-4.286c4.039.986 8.082 2.113 12.03 3.352a5.838 5.838 0 0 1 3.816 7.314 5.832 5.832 0 0 1-5.565 4.086z"></path>
    <path fill="#868491"
          d="M223.49 141.545a5.836 5.836 0 0 1-5.564-4.089 5.832 5.832 0 0 1 3.821-7.312 190.65 190.65 0 0 1 12.025-3.349c3.11-.767 6.283 1.158 7.045 4.289a5.832 5.832 0 0 1-4.289 7.045 180.558 180.558 0 0 0-11.295 3.144 5.794 5.794 0 0 1-1.743.272z"></path>
    <path fill="#0E538C"
          d="M334.314 141.545a5.825 5.825 0 0 1-1.748-.271c-23.867-7.499-48.571-9.891-73.435-7.137-3.224.393-6.089-1.957-6.442-5.152a5.834 5.834 0 0 1 5.154-6.44c26.487-2.947 52.797-.383 78.22 7.599a5.838 5.838 0 0 1 3.816 7.314 5.833 5.833 0 0 1-5.565 4.087zM66.005 281.6a5.834 5.834 0 0 1-1.749-11.4 191.047 191.047 0 0 1 18.051-4.71 5.827 5.827 0 0 1 6.904 4.512 5.827 5.827 0 0 1-4.512 6.903 179.536 179.536 0 0 0-16.945 4.426 5.902 5.902 0 0 1-1.749.269zm110.823-23.399a5.825 5.825 0 0 1-1.748-.271c-35.111-11.028-72.215-11.028-107.326 0-3.099.965-6.357-.747-7.313-3.816a5.838 5.838 0 0 1 3.816-7.313c37.401-11.746 76.92-11.746 114.321 0a5.834 5.834 0 0 1-1.75 11.4zM66.005 234.938a5.835 5.835 0 0 1-1.749-11.401 190.592 190.592 0 0 1 66.188-8.553 5.836 5.836 0 0 1 5.548 6.104c-.154 3.223-2.871 5.684-6.106 5.55a178.708 178.708 0 0 0-62.134 8.029 5.818 5.818 0 0 1-1.747.271zm110.823 0a5.825 5.825 0 0 1-1.748-.271 179.723 179.723 0 0 0-22.602-5.517 5.829 5.829 0 0 1-4.728-6.758c.553-3.17 3.595-5.292 6.756-4.73a191.992 191.992 0 0 1 24.072 5.875 5.834 5.834 0 0 1-1.75 11.401zm-110.823-23.4a5.835 5.835 0 0 1-1.749-11.4 190.804 190.804 0 0 1 102.285-3.35 5.832 5.832 0 0 1 4.289 7.049c-.763 3.127-3.936 5.033-7.046 4.287a179.007 179.007 0 0 0-96.031 3.144 5.892 5.892 0 0 1-1.748.27zm0-23.331a5.833 5.833 0 0 1-5.565-4.087 5.838 5.838 0 0 1 3.816-7.313 190.968 190.968 0 0 1 36.107-7.599c3.218-.39 6.089 1.958 6.442 5.152a5.832 5.832 0 0 1-5.155 6.439 179.515 179.515 0 0 0-33.897 7.138 5.892 5.892 0 0 1-1.748.27zm99.164-3.25c-.456 0-.923-.055-1.384-.166a179.156 179.156 0 0 0-39.537-5.063 5.831 5.831 0 0 1-5.742-5.923c.051-3.219 2.569-5.93 5.924-5.742a191.072 191.072 0 0 1 42.111 5.395 5.833 5.833 0 0 1 4.29 7.049 5.835 5.835 0 0 1-5.662 4.45zm-99.164-20.013a5.833 5.833 0 0 1-1.749-11.4c25.422-7.983 51.726-10.547 78.219-7.598a5.832 5.832 0 0 1 5.155 6.439c-.353 3.199-3.202 5.568-6.442 5.152-24.858-2.756-49.573-.362-73.435 7.137a5.892 5.892 0 0 1-1.748.27zm0-23.399a5.834 5.834 0 0 1-1.743-11.401 190.622 190.622 0 0 1 12.024-3.349c3.105-.767 6.283 1.158 7.046 4.289a5.832 5.832 0 0 1-4.29 7.045 180.749 180.749 0 0 0-11.295 3.144 5.788 5.788 0 0 1-1.742.272z"></path>
    <path fill="#FFE3CA" d="M200.16 109.711 322.647 45.31v221.204L200.16 319.692z"></path>
    <path fill="#0E538C"
          d="m289.933 100.342-69.816 33.208a5.522 5.522 0 0 1-7.358-2.616 5.52 5.52 0 0 1 2.614-7.358l69.816-33.208a5.523 5.523 0 0 1 7.358 2.615 5.519 5.519 0 0 1-2.614 7.359zm0 29.586-69.816 33.208a5.522 5.522 0 0 1-7.358-2.616 5.52 5.52 0 0 1 2.614-7.358l69.816-33.208a5.522 5.522 0 0 1 7.358 2.615 5.519 5.519 0 0 1-2.614 7.359zm0 29.586-69.816 33.208a5.522 5.522 0 0 1-7.358-2.616 5.52 5.52 0 0 1 2.614-7.358l69.816-33.208a5.522 5.522 0 0 1 7.358 2.615 5.519 5.519 0 0 1-2.614 7.359zm0 29.586-69.816 33.208a5.522 5.522 0 0 1-7.358-2.616 5.52 5.52 0 0 1 2.614-7.358l69.816-33.208a5.522 5.522 0 0 1 7.358 2.615 5.519 5.519 0 0 1-2.614 7.359zm0 29.586-69.816 33.208a5.522 5.522 0 0 1-7.358-2.616 5.52 5.52 0 0 1 2.614-7.358l69.816-33.208a5.522 5.522 0 0 1 7.358 2.615 5.52 5.52 0 0 1-2.614 7.359zm0 29.585-69.816 33.208a5.522 5.522 0 0 1-7.358-2.616 5.52 5.52 0 0 1 2.614-7.358l69.816-33.208a5.522 5.522 0 0 1 7.358 2.615 5.518 5.518 0 0 1-2.614 7.359zM189.798 331.358h22.424v22.978h-22.424z"></path>
</svg>
